# Blender 3.3.1
# www.blender.org
mtllib peachycan.mtl
o Cylinder
v 0.000000 1.500000 -0.971698
v 0.000000 1.457751 -1.000000
v 0.189569 1.500000 -0.953027
v 0.195090 1.457751 -0.980785
v 0.371853 1.500000 -0.897731
v 0.382683 1.457751 -0.923880
v 0.539846 1.500000 -0.807937
v 0.555570 1.457751 -0.831470
v 0.687094 1.500000 -0.687094
v 0.707107 1.457751 -0.707107
v 0.807937 1.500000 -0.539846
v 0.831470 1.457751 -0.555570
v 0.897731 1.500000 -0.371853
v 0.923880 1.457751 -0.382683
v 0.953027 1.500000 -0.189569
v 0.980785 1.457751 -0.195090
v 0.971698 1.500000 0.000000
v 1.000000 1.457751 0.000000
v 0.953027 1.500000 0.189569
v 0.980785 1.457751 0.195090
v 0.897731 1.500000 0.371853
v 0.923880 1.457751 0.382683
v 0.807937 1.500000 0.539846
v 0.831470 1.457751 0.555570
v 0.687094 1.500000 0.687094
v 0.707107 1.457751 0.707107
v 0.539846 1.500000 0.807937
v 0.555570 1.457751 0.831470
v 0.371853 1.500000 0.897731
v 0.382683 1.457751 0.923880
v 0.189569 1.500000 0.953027
v 0.195090 1.457751 0.980785
v -0.000000 1.500000 0.971698
v 0.000000 1.457751 1.000000
v -0.189569 1.500000 0.953027
v -0.195090 1.457751 0.980785
v -0.371853 1.500000 0.897731
v -0.382683 1.457751 0.923880
v -0.539846 1.500000 0.807937
v -0.555570 1.457751 0.831470
v -0.687094 1.500000 0.687094
v -0.707107 1.457751 0.707107
v -0.807937 1.500000 0.539846
v -0.831470 1.457751 0.555570
v -0.897731 1.500000 0.371853
v -0.923880 1.457751 0.382683
v -0.953027 1.500000 0.189569
v -0.980785 1.457751 0.195090
v -0.971698 1.500000 -0.000000
v -1.000000 1.457751 0.000000
v -0.953027 1.500000 -0.189569
v -0.980785 1.457751 -0.195090
v -0.897731 1.500000 -0.371853
v -0.923880 1.457751 -0.382683
v -0.807937 1.500000 -0.539846
v -0.831470 1.457751 -0.555570
v -0.687094 1.500000 -0.687094
v -0.707107 1.457751 -0.707107
v -0.539846 1.500000 -0.807937
v -0.555570 1.457751 -0.831470
v -0.371853 1.500000 -0.897731
v -0.382683 1.457751 -0.923880
v -0.189569 1.500000 -0.953027
v -0.195090 1.457751 -0.980785
v 0.000000 -1.500000 -0.966908
v 0.000000 -1.450601 -1.000000
v 0.195090 -1.450601 -0.980785
v 0.188634 -1.500000 -0.948329
v 0.382683 -1.450601 -0.923880
v 0.370020 -1.500000 -0.893306
v 0.555570 -1.450601 -0.831470
v 0.537185 -1.500000 -0.803955
v 0.707107 -1.450601 -0.707107
v 0.683707 -1.500000 -0.683707
v 0.831470 -1.450601 -0.555570
v 0.803955 -1.500000 -0.537185
v 0.923880 -1.450601 -0.382683
v 0.893306 -1.500000 -0.370020
v 0.980785 -1.450601 -0.195090
v 0.948329 -1.500000 -0.188634
v 1.000000 -1.450601 0.000000
v 0.966908 -1.500000 0.000000
v 0.980785 -1.450601 0.195090
v 0.948329 -1.500000 0.188634
v 0.923880 -1.450601 0.382683
v 0.893306 -1.500000 0.370020
v 0.831470 -1.450601 0.555570
v 0.803955 -1.500000 0.537185
v 0.707107 -1.450601 0.707107
v 0.683707 -1.500000 0.683707
v 0.555570 -1.450601 0.831470
v 0.537185 -1.500000 0.803955
v 0.382683 -1.450601 0.923880
v 0.370020 -1.500000 0.893306
v 0.195090 -1.450601 0.980785
v 0.188634 -1.500000 0.948329
v 0.000000 -1.450601 1.000000
v 0.000000 -1.500000 0.966908
v -0.195090 -1.450601 0.980785
v -0.188634 -1.500000 0.948329
v -0.382683 -1.450601 0.923880
v -0.370020 -1.500000 0.893306
v -0.555570 -1.450601 0.831470
v -0.537185 -1.500000 0.803955
v -0.707107 -1.450601 0.707107
v -0.683707 -1.500000 0.683707
v -0.831470 -1.450601 0.555570
v -0.803955 -1.500000 0.537185
v -0.923880 -1.450601 0.382683
v -0.893306 -1.500000 0.370020
v -0.980785 -1.450601 0.195090
v -0.948329 -1.500000 0.188634
v -1.000000 -1.450601 0.000000
v -0.966908 -1.500000 0.000000
v -0.980785 -1.450601 -0.195090
v -0.948329 -1.500000 -0.188634
v -0.923880 -1.450601 -0.382683
v -0.893306 -1.500000 -0.370020
v -0.831470 -1.450601 -0.555570
v -0.803955 -1.500000 -0.537185
v -0.707107 -1.450601 -0.707107
v -0.683707 -1.500000 -0.683707
v -0.555570 -1.450601 -0.831470
v -0.537185 -1.500000 -0.803955
v -0.382683 -1.450601 -0.923880
v -0.370020 -1.500000 -0.893306
v -0.195090 -1.450601 -0.980785
v -0.188634 -1.500000 -0.948329
vn 0.0980 -0.0000 -0.9952
vn 0.6344 -0.0000 -0.7730
vn 0.7730 -0.0000 -0.6344
vn 0.8819 -0.0000 -0.4714
vn 0.9569 -0.0000 -0.2903
vn 0.9952 -0.0000 -0.0980
vn 0.9952 -0.0000 0.0980
vn 0.9569 -0.0000 0.2903
vn 0.8819 -0.0000 0.4714
vn 0.7730 -0.0000 0.6344
vn 0.6344 -0.0000 0.7730
vn 0.4714 -0.0000 0.8819
vn 0.2903 -0.0000 0.9569
vn 0.0980 -0.0000 0.9952
vn -0.0980 -0.0000 0.9952
vn -0.2903 -0.0000 0.9569
vn -0.4714 -0.0000 0.8819
vn -0.6344 -0.0000 0.7730
vn -0.7730 -0.0000 0.6344
vn -0.8819 -0.0000 0.4714
vn -0.9569 -0.0000 0.2903
vn -0.9952 -0.0000 0.0980
vn -0.9952 -0.0000 -0.0980
vn -0.9569 -0.0000 -0.2903
vn -0.8819 -0.0000 -0.4714
vn -0.7730 -0.0000 -0.6344
vn -0.6344 -0.0000 -0.7730
vn -0.4714 -0.0000 -0.8819
vn -0.2903 -0.0000 -0.9569
vn 0.2903 -0.0000 -0.9569
vn 0.4714 -0.0000 -0.8819
vn -0.0980 -0.0000 -0.9952
vn 0.0816 0.5547 -0.8280
vn 0.2415 0.5547 -0.7962
vn 0.3922 0.5547 -0.7338
vn 0.5278 0.5547 -0.6432
vn 0.6432 0.5547 -0.5278
vn 0.7338 0.5547 -0.3922
vn 0.7962 0.5547 -0.2415
vn 0.8280 0.5547 -0.0816
vn 0.8280 0.5547 0.0816
vn 0.7962 0.5547 0.2415
vn 0.7338 0.5547 0.3922
vn 0.6432 0.5547 0.5278
vn 0.5278 0.5547 0.6432
vn 0.3922 0.5547 0.7338
vn 0.2415 0.5547 0.7962
vn 0.0816 0.5547 0.8280
vn -0.0816 0.5547 0.8280
vn -0.2415 0.5547 0.7962
vn -0.3922 0.5547 0.7338
vn -0.5278 0.5547 0.6432
vn -0.6432 0.5547 0.5278
vn -0.7338 0.5547 0.3922
vn -0.7962 0.5547 0.2415
vn -0.8280 0.5547 0.0816
vn -0.8280 0.5547 -0.0816
vn -0.7962 0.5547 -0.2415
vn -0.7338 0.5547 -0.3922
vn -0.6432 0.5547 -0.5278
vn -0.5278 0.5547 -0.6432
vn -0.3922 0.5547 -0.7338
vn -0.2415 0.5547 -0.7962
vn -0.0816 0.5547 -0.8280
vn -0.0000 1.0000 -0.0000
vn 0.0816 -0.5547 -0.8280
vn 0.2415 -0.5547 -0.7962
vn 0.3922 -0.5547 -0.7338
vn 0.5278 -0.5547 -0.6432
vn 0.6432 -0.5547 -0.5278
vn 0.7338 -0.5547 -0.3922
vn 0.7962 -0.5547 -0.2415
vn 0.8280 -0.5547 -0.0816
vn 0.8280 -0.5547 0.0816
vn 0.7962 -0.5547 0.2415
vn 0.7338 -0.5547 0.3922
vn 0.6432 -0.5547 0.5278
vn 0.5278 -0.5547 0.6432
vn 0.3922 -0.5547 0.7338
vn 0.2415 -0.5547 0.7962
vn 0.0816 -0.5547 0.8280
vn -0.0816 -0.5547 0.8280
vn -0.2415 -0.5547 0.7962
vn -0.3922 -0.5547 0.7338
vn -0.5278 -0.5547 0.6432
vn -0.6432 -0.5547 0.5278
vn -0.7338 -0.5547 0.3922
vn -0.7962 -0.5547 0.2415
vn -0.8280 -0.5547 0.0816
vn -0.8280 -0.5547 -0.0816
vn -0.7962 -0.5547 -0.2415
vn -0.7338 -0.5547 -0.3922
vn -0.6432 -0.5547 -0.5278
vn -0.5278 -0.5547 -0.6432
vn -0.3922 -0.5547 -0.7338
vn -0.2415 -0.5547 -0.7962
vn -0.0816 -0.5547 -0.8280
vn -0.0000 -1.0000 -0.0000
vt 0.252897 0.487484
vt 1.000000 0.992958
vt 0.000000 0.992958
vt 0.253078 0.494310
vt 0.298333 0.485253
vt 0.968750 0.992958
vt 0.299588 0.492151
vt 0.342170 0.473795
vt 0.937500 0.992958
vt 0.344467 0.480474
vt 0.385176 0.452501
vt 0.906250 0.992958
vt 0.388889 0.458498
vt 0.423966 0.423054
vt 0.875000 0.992958
vt 0.428942 0.428055
vt 0.455817 0.388158
vt 0.843750 0.992958
vt 0.461518 0.392541
vt 0.481940 0.344935
vt 0.812500 0.992958
vt 0.488720 0.348022
vt 0.498270 0.295339
vt 0.781250 0.992958
vt 0.505723 0.296514
vt 0.502276 0.245865
vt 0.750000 0.992958
vt 0.509695 0.245999
vt 0.495420 0.193910
vt 0.718750 0.992958
vt 0.502604 0.191804
vt 0.478144 0.148715
vt 0.687500 0.992958
vt 0.484747 0.145745
vt 0.451697 0.107211
vt 0.656250 0.992958
vt 0.457109 0.102760
vt 0.421193 0.073793
vt 0.625000 0.992958
vt 0.426248 0.068696
vt 0.382078 0.046585
vt 0.593750 0.992958
vt 0.385506 0.040529
vt 0.340838 0.028560
vt 0.562500 0.992958
vt 0.343394 0.022380
vt 0.295674 0.016505
vt 0.531250 0.992958
vt 0.296822 0.009694
vt 0.249292 0.013928
vt 0.500000 0.992958
vt 0.249074 0.007223
vt 0.203774 0.019207
vt 0.468750 0.992958
vt 0.202251 0.012448
vt 0.160779 0.034327
vt 0.437500 0.992958
vt 0.158156 0.028269
vt 0.120503 0.056019
vt 0.406250 0.992958
vt 0.116663 0.050447
vt 0.085022 0.084825
vt 0.375000 0.992958
vt 0.080294 0.080294
vt 0.054244 0.117442
vt 0.343750 0.992958
vt 0.048287 0.113269
vt 0.032830 0.158647
vt 0.312500 0.992958
vt 0.026446 0.156029
vt 0.019496 0.203090
vt 0.281250 0.992958
vt 0.012814 0.201681
vt 0.013762 0.249860
vt 0.250000 0.992958
vt 0.006613 0.250000
vt 0.018987 0.295255
vt 0.218750 0.992958
vt 0.012219 0.296523
vt 0.032593 0.339592
vt 0.187500 0.992958
vt 0.026134 0.342149
vt 0.054923 0.381155
vt 0.156250 0.992958
vt 0.049220 0.385177
vt 0.084031 0.415610
vt 0.125000 0.992958
vt 0.079062 0.420322
vt 0.119954 0.444867
vt 0.093750 0.992958
vt 0.116046 0.450479
vt 0.161095 0.467263
vt 0.062500 0.992958
vt 0.158458 0.473546
vt 0.205095 0.481689
vt 0.031250 0.992958
vt 0.203481 0.488410
vt 0.999483 0.500000
vt 0.000517 0.500000
vt 0.750990 0.485016
vt 1.000000 0.508233
vt 0.000000 0.508233
vt 0.968750 0.508233
vt 0.969267 0.500000
vt 0.968233 0.500000
vt 0.796176 0.482021
vt 0.937500 0.508233
vt 0.938017 0.500000
vt 0.936983 0.500000
vt 0.841303 0.468671
vt 0.906250 0.508233
vt 0.906767 0.500000
vt 0.905733 0.500000
vt 0.882579 0.447812
vt 0.875000 0.508233
vt 0.875517 0.500000
vt 0.874483 0.500000
vt 0.918307 0.417787
vt 0.843750 0.508233
vt 0.844267 0.500000
vt 0.843233 0.500000
vt 0.947135 0.382670
vt 0.812500 0.508233
vt 0.813017 0.500000
vt 0.811983 0.500000
vt 0.969889 0.341158
vt 0.781250 0.508233
vt 0.781767 0.500000
vt 0.780733 0.500000
vt 0.981587 0.295792
vt 0.750000 0.508233
vt 0.750517 0.500000
vt 0.749483 0.500000
vt 0.986842 0.250547
vt 0.718750 0.508233
vt 0.719267 0.500000
vt 0.718233 0.500000
vt 0.982553 0.204809
vt 0.687500 0.508233
vt 0.688017 0.500000
vt 0.686983 0.500000
vt 0.969588 0.161399
vt 0.656250 0.508233
vt 0.656767 0.500000
vt 0.655733 0.500000
vt 0.948472 0.120499
vt 0.625000 0.508233
vt 0.625517 0.500000
vt 0.624483 0.500000
vt 0.920109 0.084615
vt 0.593750 0.508233
vt 0.594267 0.500000
vt 0.593233 0.500000
vt 0.884971 0.053971
vt 0.562500 0.508233
vt 0.563017 0.500000
vt 0.561983 0.500000
vt 0.844073 0.032573
vt 0.531250 0.508233
vt 0.531767 0.500000
vt 0.530733 0.500000
vt 0.799987 0.018900
vt 0.500000 0.508233
vt 0.500517 0.500000
vt 0.499483 0.500000
vt 0.752304 0.014453
vt 0.468750 0.508233
vt 0.469267 0.500000
vt 0.468233 0.500000
vt 0.705115 0.022108
vt 0.437500 0.508233
vt 0.438017 0.500000
vt 0.436983 0.500000
vt 0.661568 0.035789
vt 0.406250 0.508233
vt 0.406767 0.500000
vt 0.405733 0.500000
vt 0.623154 0.059371
vt 0.375000 0.508233
vt 0.375517 0.500000
vt 0.374483 0.500000
vt 0.590841 0.090154
vt 0.343750 0.508233
vt 0.344267 0.500000
vt 0.343233 0.500000
vt 0.564714 0.125352
vt 0.312500 0.508233
vt 0.313017 0.500000
vt 0.311983 0.500000
vt 0.544496 0.164226
vt 0.281250 0.508233
vt 0.281767 0.500000
vt 0.280733 0.500000
vt 0.533302 0.204392
vt 0.250000 0.508233
vt 0.250517 0.500000
vt 0.249483 0.500000
vt 0.529216 0.248637
vt 0.218750 0.508233
vt 0.219267 0.500000
vt 0.218233 0.500000
vt 0.532066 0.291273
vt 0.187500 0.508233
vt 0.188017 0.500000
vt 0.186983 0.500000
vt 0.543254 0.333650
vt 0.156250 0.508233
vt 0.156767 0.500000
vt 0.155733 0.500000
vt 0.562888 0.374465
vt 0.125000 0.508233
vt 0.125517 0.500000
vt 0.124483 0.500000
vt 0.590274 0.410032
vt 0.093750 0.508233
vt 0.094267 0.500000
vt 0.093233 0.500000
vt 0.621643 0.442605
vt 0.062500 0.508233
vt 0.063017 0.500000
vt 0.061983 0.500000
vt 0.661669 0.464488
vt 0.031250 0.508233
vt 0.031767 0.500000
vt 0.030733 0.500000
vt 0.707895 0.478839
s 0
usemtl Material.001
f 66/101/1 2/2/1 4/6/1 67/103/1
f 71/111/2 8/12/2 10/15/2 73/115/2
f 73/115/3 10/15/3 12/18/3 75/119/3
f 75/119/4 12/18/4 14/21/4 77/123/4
f 77/123/5 14/21/5 16/24/5 79/127/5
f 79/127/6 16/24/6 18/27/6 81/131/6
f 81/131/7 18/27/7 20/30/7 83/135/7
f 83/135/8 20/30/8 22/33/8 85/139/8
f 85/139/9 22/33/9 24/36/9 87/143/9
f 87/143/10 24/36/10 26/39/10 89/147/10
f 89/147/11 26/39/11 28/42/11 91/151/11
f 91/151/12 28/42/12 30/45/12 93/155/12
f 93/155/13 30/45/13 32/48/13 95/159/13
f 95/159/14 32/48/14 34/51/14 97/163/14
f 97/163/15 34/51/15 36/54/15 99/167/15
f 99/167/16 36/54/16 38/57/16 101/171/16
f 101/171/17 38/57/17 40/60/17 103/175/17
f 103/175/18 40/60/18 42/63/18 105/179/18
f 105/179/19 42/63/19 44/66/19 107/183/19
f 107/183/20 44/66/20 46/69/20 109/187/20
f 109/187/21 46/69/21 48/72/21 111/191/21
f 111/191/22 48/72/22 50/75/22 113/195/22
f 113/195/23 50/75/23 52/78/23 115/199/23
f 115/199/24 52/78/24 54/81/24 117/203/24
f 117/203/25 54/81/25 56/84/25 119/207/25
f 119/207/26 56/84/26 58/87/26 121/211/26
f 121/211/27 58/87/27 60/90/27 123/215/27
f 123/215/28 60/90/28 62/93/28 125/219/28
f 125/219/29 62/93/29 64/96/29 127/223/29
f 67/103/30 4/6/30 6/9/30 69/107/30
f 69/107/31 6/9/31 8/12/31 71/111/31
f 127/223/32 64/96/32 2/3/32 66/102/32
f 4/7/33 2/4/33 1/1/33 3/5/33
f 6/10/34 4/7/34 3/5/34 5/8/34
f 8/13/35 6/10/35 5/8/35 7/11/35
f 10/16/36 8/13/36 7/11/36 9/14/36
f 12/19/37 10/16/37 9/14/37 11/17/37
f 14/22/38 12/19/38 11/17/38 13/20/38
f 16/25/39 14/22/39 13/20/39 15/23/39
f 18/28/40 16/25/40 15/23/40 17/26/40
f 20/31/41 18/28/41 17/26/41 19/29/41
f 22/34/42 20/31/42 19/29/42 21/32/42
f 24/37/43 22/34/43 21/32/43 23/35/43
f 26/40/44 24/37/44 23/35/44 25/38/44
f 28/43/45 26/40/45 25/38/45 27/41/45
f 30/46/46 28/43/46 27/41/46 29/44/46
f 32/49/47 30/46/47 29/44/47 31/47/47
f 34/52/48 32/49/48 31/47/48 33/50/48
f 36/55/49 34/52/49 33/50/49 35/53/49
f 38/58/50 36/55/50 35/53/50 37/56/50
f 40/61/51 38/58/51 37/56/51 39/59/51
f 42/64/52 40/61/52 39/59/52 41/62/52
f 44/67/53 42/64/53 41/62/53 43/65/53
f 46/70/54 44/67/54 43/65/54 45/68/54
f 48/73/55 46/70/55 45/68/55 47/71/55
f 50/76/56 48/73/56 47/71/56 49/74/56
f 52/79/57 50/76/57 49/74/57 51/77/57
f 54/82/58 52/79/58 51/77/58 53/80/58
f 56/85/59 54/82/59 53/80/59 55/83/59
f 58/88/60 56/85/60 55/83/60 57/86/60
f 60/91/61 58/88/61 57/86/61 59/89/61
f 62/94/62 60/91/62 59/89/62 61/92/62
f 64/97/63 62/94/63 61/92/63 63/95/63
f 2/4/64 64/97/64 63/95/64 1/1/64
f 3/5/65 1/1/65 63/95/65 61/92/65 59/89/65 57/86/65 55/83/65 53/80/65 51/77/65 49/74/65 47/71/65 45/68/65 43/65/65 41/62/65 39/59/65 37/56/65 35/53/65 33/50/65 31/47/65 29/44/65 27/41/65 25/38/65 23/35/65 21/32/65 19/29/65 17/26/65 15/23/65 13/20/65 11/17/65 9/14/65 7/11/65 5/8/65
f 66/101/66 67/103/66 68/104/66 65/98/66
f 67/103/67 69/107/67 70/108/67 68/105/67
f 69/107/68 71/111/68 72/112/68 70/109/68
f 71/111/69 73/115/69 74/116/69 72/113/69
f 73/115/70 75/119/70 76/120/70 74/117/70
f 75/119/71 77/123/71 78/124/71 76/121/71
f 77/123/72 79/127/72 80/128/72 78/125/72
f 79/127/73 81/131/73 82/132/73 80/129/73
f 81/131/74 83/135/74 84/136/74 82/133/74
f 83/135/75 85/139/75 86/140/75 84/137/75
f 85/139/76 87/143/76 88/144/76 86/141/76
f 87/143/77 89/147/77 90/148/77 88/145/77
f 89/147/78 91/151/78 92/152/78 90/149/78
f 91/151/79 93/155/79 94/156/79 92/153/79
f 93/155/80 95/159/80 96/160/80 94/157/80
f 95/159/81 97/163/81 98/164/81 96/161/81
f 97/163/82 99/167/82 100/168/82 98/165/82
f 99/167/83 101/171/83 102/172/83 100/169/83
f 101/171/84 103/175/84 104/176/84 102/173/84
f 103/175/85 105/179/85 106/180/85 104/177/85
f 105/179/86 107/183/86 108/184/86 106/181/86
f 107/183/87 109/187/87 110/188/87 108/185/87
f 109/187/88 111/191/88 112/192/88 110/189/88
f 111/191/89 113/195/89 114/196/89 112/193/89
f 113/195/90 115/199/90 116/200/90 114/197/90
f 115/199/91 117/203/91 118/204/91 116/201/91
f 117/203/92 119/207/92 120/208/92 118/205/92
f 119/207/93 121/211/93 122/212/93 120/209/93
f 121/211/94 123/215/94 124/216/94 122/213/94
f 123/215/95 125/219/95 126/220/95 124/217/95
f 125/219/96 127/223/96 128/224/96 126/221/96
f 127/223/97 66/102/97 65/99/97 128/225/97
f 65/100/98 68/106/98 70/110/98 72/114/98 74/118/98 76/122/98 78/126/98 80/130/98 82/134/98 84/138/98 86/142/98 88/146/98 90/150/98 92/154/98 94/158/98 96/162/98 98/166/98 100/170/98 102/174/98 104/178/98 106/182/98 108/186/98 110/190/98 112/194/98 114/198/98 116/202/98 118/206/98 120/210/98 122/214/98 124/218/98 126/222/98 128/226/98
